#tb 0: 1/5
0,          0,          0,        1,   115200, 0x375ec573
0,          1,          1,        1,   115200, 0x375ec573
0,          2,          2,        1,   115200, 0x375ec573
0,          3,          3,        1,   115200, 0x375ec573
0,          4,          4,        1,   115200, 0x375ec573
